<svg width="30" height="30" viewBox="0 0 30 30" fill="none" xmlns="http://www.w3.org/2000/svg">
<g clip-path="url(#clip0_5_72)">
<path d="M15.2614 27.1809C15.2467 27.1663 15.1808 27.137 15.1149 27.1132C14.8623 27.0254 14.7177 26.9503 13.3578 26.198C13.0612 26.0333 12.6824 25.8283 12.5158 25.7404C12.3492 25.6526 12.1607 25.5482 12.0948 25.508C11.9831 25.4384 11.9758 25.4311 11.9703 25.3579L11.9648 25.2828H12.0893C12.1955 25.2828 12.2614 25.2993 12.5066 25.3853C12.6677 25.4421 13.0466 25.572 13.3486 25.6764C14.218 25.9747 15.7318 26.5019 15.9478 26.5806C16.0356 26.6135 16.0393 26.6172 16.0448 26.6886L16.0503 26.7636L15.8324 26.9082C15.7135 26.9888 15.589 27.0711 15.5579 27.0931C15.5249 27.1132 15.4755 27.148 15.4444 27.1681C15.3822 27.2102 15.2998 27.2157 15.2614 27.1809Z" fill="white"/>
<path d="M17.824 25.4109C17.7782 25.3908 17.586 25.3213 17.3938 25.2554C16.6415 24.9918 15.1846 24.4811 14.6025 24.2761C14.2657 24.1571 13.8246 24.0016 13.6232 23.932C13.4219 23.8606 12.9899 23.7087 12.6623 23.5934C12.3346 23.4762 11.9118 23.328 11.7196 23.2602C11.5293 23.1925 11.079 23.0351 10.7221 22.9088C10.1547 22.7093 9.51768 22.486 8.82763 22.2444C8.7178 22.2059 8.392 22.0906 8.10463 21.9881C7.81726 21.8856 7.53721 21.7868 7.4823 21.7685C7.10158 21.6422 6.09852 21.2816 5.99785 21.2358C5.84776 21.1663 5.77272 21.0894 5.58602 20.8167C5.50731 20.7014 5.34441 20.4652 5.22177 20.2914C4.99663 19.9692 4.67998 19.5153 4.49694 19.2517C4.4402 19.1712 4.26082 18.9204 4.09791 18.6934L3.80322 18.2816V17.9283V17.5751L3.88925 17.5806L3.97711 17.5861L4.19676 17.8789C4.31756 18.04 4.5427 18.3365 4.69645 18.5379C4.8502 18.7392 5.19615 19.1968 5.46521 19.5537C5.73428 19.9106 5.99968 20.2474 6.0546 20.3042C6.16991 20.4177 6.16442 20.4158 6.99724 20.7069C8.02409 21.0674 8.59883 21.2706 9.27607 21.5122C9.4225 21.5635 9.77211 21.6879 10.054 21.7868C10.3359 21.8856 10.669 22.0028 10.7953 22.0485C11.0314 22.1346 11.4634 22.2883 12.5067 22.6562C14.004 23.187 14.5604 23.3829 14.6025 23.3975C14.6281 23.4048 14.8716 23.4927 15.1425 23.5897C15.8435 23.8405 17.1449 24.2999 17.4487 24.4042C17.5897 24.4518 17.8899 24.5598 18.1168 24.6422C18.3438 24.7246 18.5634 24.8051 18.6074 24.8197C18.6806 24.8454 18.6842 24.8509 18.6842 24.9222C18.6842 25.0192 18.6769 25.0284 18.5653 25.0888C18.5159 25.1163 18.3749 25.2078 18.2541 25.292C18.0107 25.464 17.9759 25.4732 17.824 25.4109Z" fill="white"/>
<path d="M20.176 23.4396C19.7111 23.2694 18.3859 22.7898 17.284 22.3908C16.0906 21.9607 14.9906 21.5617 14.8771 21.5196C14.8112 21.4958 14.4286 21.3585 14.0259 21.212C13.6233 21.0674 12.8252 20.7782 12.2505 20.5696C11.6776 20.3609 11.0955 20.1504 10.9601 20.1028C10.8246 20.0534 10.5446 19.9527 10.3377 19.8777C10.1309 19.8008 9.76847 19.669 9.53235 19.5848C9.29623 19.4988 8.90453 19.3579 8.66292 19.27C7.89416 18.9918 7.5354 18.8637 7.24437 18.7612C6.76115 18.5891 6.5653 18.5122 6.44083 18.4427C6.34382 18.3896 6.19739 18.256 5.70685 17.7709C5.18153 17.2511 4.73675 16.8136 4.02656 16.1199L3.87646 15.9717L3.88013 15.6349L3.88562 15.2981L3.94968 15.2926C4.00642 15.2871 4.03388 15.3036 4.18763 15.4317C4.28281 15.5104 4.51893 15.7154 4.71112 15.8856C6.51771 17.4854 6.46646 17.4396 6.60923 17.5385C6.72454 17.6172 6.85267 17.6684 7.50978 17.9064C7.81179 18.0144 8.27671 18.1828 8.54395 18.2816C8.81118 18.3786 9.38775 18.5891 9.82521 18.7484C10.2627 18.9058 10.8942 19.1364 11.2255 19.2572C11.5586 19.378 12.0565 19.5592 12.3328 19.6599C12.6092 19.7606 13.0375 19.918 13.2846 20.0077C13.5317 20.0992 14.0058 20.2731 14.3371 20.3939C14.6702 20.5147 15.2377 20.7215 15.6001 20.8533C16.7075 21.2578 19.3908 22.2352 20.0205 22.464C20.3481 22.583 20.7069 22.713 20.8167 22.7551C20.9283 22.7972 21.1187 22.8704 21.2432 22.9161L21.4683 23.0003L21.4628 23.0845C21.4573 23.1632 21.4518 23.1706 21.3713 23.2145C21.3237 23.2401 21.2651 23.2786 21.2432 23.3005C21.2194 23.3207 21.1681 23.3554 21.1278 23.3756C21.0876 23.3957 20.9906 23.4579 20.9119 23.5147C20.8057 23.5916 20.7544 23.6172 20.7105 23.6153C20.6794 23.6153 20.4378 23.5366 20.176 23.4396Z" fill="white"/>
<path d="M23.509 21.6788C23.5035 21.6697 23.476 21.6568 23.4486 21.6495C23.4193 21.6422 22.9946 21.4866 22.5004 21.3017C21.404 20.8917 20.3845 20.511 19.764 20.2804C19.5077 20.1852 18.922 19.9656 18.4644 19.7953C16.678 19.1273 16.3705 19.0138 15.8744 18.8307C15.5925 18.7264 15.0617 18.5287 14.6938 18.3914C14.3259 18.2542 13.7841 18.051 13.4894 17.9412C13.1947 17.8313 12.5779 17.6007 12.1166 17.4287C10.6194 16.8686 9.78657 16.5574 9.43147 16.4274C7.16545 15.5855 7.09224 15.558 6.83965 15.428C6.73348 15.375 6.22647 15.0876 5.71396 14.7911C5.20145 14.4945 4.59926 14.1468 4.37595 14.0168L3.96777 13.7844V13.5702C3.96777 13.4531 3.97326 13.303 3.98059 13.2352L3.99157 13.1108H4.0538C4.08858 13.1108 4.17644 13.1419 4.25697 13.1822C4.44367 13.2755 6.69688 14.3499 6.9696 14.4744C7.08675 14.5275 7.3009 14.6208 7.4455 14.6812C7.70542 14.7892 7.8793 14.8551 8.92812 15.2413C9.21549 15.3457 9.85795 15.5873 10.3558 15.774C10.8537 15.9625 11.4065 16.1694 11.5822 16.2352C12.1166 16.4348 13.5205 16.9637 16.268 17.9979C16.8866 18.2304 17.6499 18.5159 17.9611 18.633C18.2741 18.7484 18.8415 18.9625 19.224 19.1053C19.6066 19.2499 20.1703 19.4622 20.4778 19.5775C20.7853 19.6928 21.6877 20.0315 22.4821 20.3316C23.2783 20.6318 24.0324 20.9137 24.1624 20.9595L24.3949 21.0437V21.1114C24.3949 21.1663 24.3839 21.1846 24.3308 21.2212C24.296 21.245 24.2667 21.2706 24.2667 21.278C24.2667 21.2853 24.232 21.3091 24.1899 21.331C24.1057 21.3731 23.9739 21.4592 23.8457 21.5525C23.6975 21.6623 23.6353 21.6935 23.5767 21.6953C23.5456 21.6953 23.5144 21.688 23.509 21.6788Z" fill="white"/>
<path d="M25.4018 19.4768C25.356 19.453 25.1583 19.3469 24.9625 19.2407C23.7654 18.5909 23.5092 18.4701 22.7349 18.1809C22.2499 17.9997 21.6477 17.7709 21.3383 17.6501C21.212 17.6025 20.5037 17.3298 19.7642 17.0461C19.0247 16.7624 18.3823 16.5153 18.3365 16.497C18.2907 16.4787 17.7563 16.2718 17.1467 16.0394C16.5372 15.8051 15.9698 15.5873 15.8838 15.5543C15.7977 15.5195 15.4024 15.3676 15.0052 15.2157C14.608 15.0638 14.2328 14.9192 14.1724 14.8954C13.9436 14.8057 12.1242 14.1065 11.7197 13.9527C11.489 13.8649 10.5995 13.5226 9.74284 13.1931C8.00763 12.5232 7.82276 12.4536 7.57383 12.3768C7.40178 12.3218 6.99543 12.2358 6.15528 12.0766C5.91367 12.0308 5.57139 11.9649 5.39567 11.9301C5.21996 11.8954 4.99665 11.8551 4.90147 11.8386C4.80629 11.8222 4.58847 11.7801 4.42008 11.7453C4.24985 11.7123 4.10891 11.683 4.10342 11.683C4.0778 11.683 4.10342 11.4835 4.14918 11.3261C4.23338 11.0314 4.22789 11.0424 4.33222 11.0424C4.38164 11.0424 4.53905 11.0552 4.68365 11.0699C5.07719 11.112 5.61166 11.165 6.06376 11.2071C6.28524 11.2273 6.56895 11.2566 6.69525 11.2712C6.82154 11.2859 7.05583 11.3096 7.21691 11.3261C7.75321 11.3774 7.91062 11.414 8.40666 11.6135C8.55858 11.6739 8.72331 11.738 8.77273 11.7563C8.82398 11.7746 9.12051 11.888 9.43167 12.0089C9.74467 12.1297 10.345 12.3621 10.7679 12.525C11.1907 12.6879 11.6519 12.8673 11.7929 12.9222C11.9338 12.9771 12.4115 13.1638 12.8545 13.3341C13.2974 13.5061 13.7679 13.6873 13.8978 13.7386C14.1412 13.8319 14.1925 13.8521 14.6666 14.0351C14.8185 14.0918 15.2871 14.2749 15.7099 14.4378C16.1327 14.6025 16.788 14.8569 17.165 15.0015C17.5421 15.148 18.2596 15.4262 18.7575 15.6184C19.2553 15.8106 20.0351 16.1126 20.4872 16.2865C20.9411 16.4622 21.4921 16.6763 21.7136 16.7624C21.935 16.8484 22.3304 17.0021 22.5921 17.1028C23.4433 17.4305 23.3938 17.4067 24.2669 17.943C24.4024 18.0272 24.8069 18.2724 25.1638 18.4884C25.5207 18.7044 25.8411 18.9003 25.874 18.9259C25.9234 18.9643 25.9326 18.9808 25.9326 19.0503C25.9326 19.1162 25.9198 19.1455 25.8502 19.2297C25.8063 19.2846 25.7459 19.3707 25.7166 19.4182C25.6672 19.5043 25.6617 19.5079 25.5738 19.5134C25.5079 19.5171 25.4622 19.5079 25.4018 19.4768Z" fill="white"/>
<path d="M25.8923 17.4616C25.8484 17.4287 25.6855 17.295 25.5299 17.1669C25.3743 17.037 25.0942 16.8082 24.9094 16.6544C24.7227 16.5025 24.4518 16.2792 24.3054 16.1584C24.1571 16.0376 23.9356 15.8545 23.8093 15.752C23.683 15.6495 23.3792 15.4006 23.1321 15.1956C22.5793 14.7398 22.4512 14.6446 22.2864 14.5623C22.1638 14.5019 21.7135 14.3207 20.6885 13.9198C20.4579 13.8283 19.8392 13.5849 19.3157 13.3762C18.7922 13.1675 18.0143 12.8582 17.586 12.6898C17.1577 12.5214 16.5647 12.2853 16.2681 12.1681C15.9716 12.051 15.5762 11.8936 15.3895 11.8204C15.2029 11.7471 14.5073 11.4708 13.8429 11.2072C12.0711 10.5043 11.9063 10.4439 11.1888 10.2444C10.0961 9.94056 9.70804 9.82891 8.91914 9.59645C7.97832 9.31823 7.64702 9.22305 7.47863 9.18461L7.30108 9.14251L7.07594 9.17546C6.95148 9.19376 6.42616 9.27979 5.90633 9.36582C5.3865 9.45185 4.92341 9.52323 4.87399 9.52323H4.78613L4.79528 9.40975C4.80627 9.28162 4.92707 8.84965 4.96185 8.8167C4.97466 8.80572 5.20163 8.73983 5.46887 8.67393C5.7361 8.60621 6.0491 8.52567 6.16441 8.49456C6.66045 8.3646 6.9771 8.29688 7.09974 8.29688C7.1638 8.29688 7.70194 8.42866 8.10462 8.54215C8.19065 8.56594 8.56588 8.66844 8.93744 8.77094C9.31084 8.87345 9.68424 8.97778 9.77027 9.00157C10.162 9.1114 11.0863 9.36765 11.5183 9.48662C11.78 9.55801 12.0766 9.64038 12.1772 9.66966C12.3749 9.72641 13.0924 9.92958 13.7257 10.1071C14.2602 10.2554 14.5952 10.3707 15.0509 10.5574C15.2633 10.6453 15.7318 10.8356 16.0942 10.982C16.4567 11.1266 16.9545 11.328 17.2016 11.4268C17.5878 11.5824 19.3322 12.278 20.5787 12.7722C22.0595 13.3615 22.1345 13.3945 22.3542 13.5757C22.5116 13.7057 23.0753 14.1999 24.3859 15.3622C24.6971 15.6404 25.1473 16.0357 25.3834 16.2426C25.8356 16.6379 25.9728 16.7679 26.0351 16.8558C26.0625 16.896 26.079 16.9729 26.1046 17.1871C26.1229 17.339 26.1339 17.4781 26.1284 17.4927C26.1064 17.5458 25.982 17.5293 25.8923 17.4616Z" fill="white"/>
<path d="M25.5517 15.1096C25.5242 15.0821 25.4125 14.9595 25.3009 14.8405C25.1911 14.7197 25.0208 14.5385 24.9257 14.4378C24.8305 14.3372 24.6456 14.1395 24.5138 13.9985C24.2814 13.7478 24.1368 13.5922 23.8348 13.2755C23.7542 13.1895 23.5767 13.001 23.4412 12.8545C23.3076 12.7081 23.1429 12.5324 23.0751 12.461C22.9177 12.2944 22.4638 11.8094 21.8049 11.1065C21.0947 10.3487 21.0581 10.314 20.8348 10.2096C20.5089 10.0577 20.1044 9.94057 18.8854 9.65137C18.5999 9.58181 17.3003 9.26332 16.1673 8.98328C15.695 8.86613 14.994 8.69407 14.6114 8.59889C14.2289 8.50371 13.5956 8.34813 13.2039 8.25112C12.5285 8.08456 12.0251 7.96192 10.2185 7.51714C9.78655 7.41097 9.20083 7.2682 8.91895 7.19865C8.63707 7.1291 8.20144 7.02293 7.94884 6.9607C7.69808 6.89847 7.29357 6.79963 7.05196 6.74105C6.40949 6.58181 6.51016 6.57632 6.08917 6.79414C5.81828 6.93324 5.71394 6.979 5.66086 6.979H5.59131L5.60229 6.89298C5.60778 6.84356 5.65354 6.6715 5.70296 6.51043C5.80729 6.16265 5.85671 6.08578 6.01779 6.01073C6.09833 5.97412 6.15324 5.96314 6.3015 5.95765C6.51199 5.9485 6.64561 5.97046 7.15263 6.0931C7.33933 6.13886 7.65964 6.21573 7.86648 6.26515C8.30028 6.36766 9.57239 6.6715 10.0538 6.78681C10.5956 6.91494 12.1386 7.27919 12.6255 7.39267C12.7811 7.42928 13.041 7.49151 13.202 7.52995C13.3631 7.56839 13.656 7.63794 13.8518 7.6837C14.0477 7.72946 14.3277 7.79719 14.4742 7.83196C14.6206 7.86674 15.1807 7.99853 15.7188 8.12482C16.257 8.25112 16.8134 8.38291 16.9543 8.41586C17.4266 8.52934 18.1368 8.6959 19.0501 8.90823C19.548 9.02537 20.0056 9.13337 20.066 9.14801C20.1264 9.16265 20.368 9.22123 20.6041 9.27614C20.8402 9.33288 21.0654 9.39511 21.1038 9.41525C21.199 9.46467 21.329 9.59462 21.6584 9.97168C21.9366 10.2883 22.2002 10.5867 22.2167 10.6032C22.2222 10.6087 22.5571 10.9821 22.958 11.4342C23.3607 11.8863 23.8128 12.3933 23.961 12.5598C24.1093 12.7264 24.3711 13.0211 24.5413 13.2115C24.7097 13.4037 25.008 13.7368 25.2002 13.9528C25.6505 14.4543 25.6834 14.5037 25.7109 14.7179C25.7219 14.8057 25.731 14.943 25.731 15.0199V15.1608H25.6651C25.6175 15.1608 25.5864 15.1462 25.5517 15.1096Z" fill="white"/>
<path d="M25.2422 12.8783C25.2129 12.849 25.1196 12.7319 25.0317 12.6166C24.9439 12.5013 24.8029 12.3182 24.7206 12.2102C24.6364 12.1022 24.4808 11.9009 24.3746 11.7618C24.1953 11.5293 23.9738 11.2438 23.4411 10.5574C23.3331 10.4165 23.1355 10.162 23.0037 9.98997C22.8701 9.81975 22.7474 9.6605 22.7291 9.63854C22.6907 9.59461 22.3136 9.1059 21.8908 8.55495C21.532 8.09003 21.4478 7.99852 21.3344 7.94177C21.2227 7.88869 20.9665 7.82646 20.3039 7.69284C20.0092 7.63244 19.7291 7.57387 19.1599 7.45489C18.3453 7.28284 18.2081 7.25355 18.025 7.21694C17.9189 7.19498 17.7431 7.15837 17.6315 7.13274C17.5217 7.10895 17.3148 7.06502 17.1739 7.03573C16.8097 6.96069 16.4472 6.88381 15.9933 6.7868C15.7773 6.74104 15.4607 6.67332 15.2886 6.63854C14.7816 6.53238 14.41 6.4555 14.0897 6.38595C13.6156 6.28528 13.0244 6.15898 12.7444 6.10041C12.6034 6.07112 12.3527 6.01804 12.1861 5.98326C12.0195 5.94849 11.723 5.88625 11.5272 5.84415C11.3313 5.80388 11.0549 5.74531 10.914 5.71603C10.773 5.68674 10.4802 5.62451 10.2642 5.57875C9.66566 5.45062 9.19342 5.35178 9.00123 5.31334C8.90605 5.29321 8.65529 5.24013 8.44297 5.19437C8.23247 5.14861 7.99635 5.09736 7.92131 5.08271C7.71447 5.04245 7.70166 5.03329 7.70166 4.9491C7.70166 4.88869 7.70898 4.87588 7.75108 4.86124C7.78037 4.85025 7.8847 4.81182 7.98537 4.77338C8.08604 4.73677 8.22698 4.68369 8.29654 4.65806L8.42466 4.6123L9.12936 4.75324C9.5174 4.83195 10.255 4.98204 10.7676 5.0882C12.2721 5.39571 13.1104 5.56777 13.4033 5.62451C13.5552 5.65379 13.7968 5.70321 13.9433 5.7325C14.6718 5.88259 15.7791 6.10956 16.9176 6.34019C17.6132 6.48113 18.5028 6.66234 18.8945 6.74287C19.288 6.82341 19.7493 6.91676 19.9195 6.95154C20.9006 7.14739 21.4259 7.25904 21.5119 7.29199C21.6785 7.35422 21.587 7.2444 22.6376 8.65379C23.0366 9.1901 24.0214 10.5098 24.1275 10.6489C24.2172 10.7679 24.4112 11.0278 24.8652 11.6373C25.0683 11.9082 25.2514 12.1535 25.2734 12.1809C25.3466 12.2761 25.4546 12.7374 25.4308 12.8637C25.4198 12.9222 25.4125 12.9277 25.3557 12.9277C25.3118 12.9277 25.277 12.9131 25.2422 12.8783Z" fill="white"/>
<path d="M24.7298 10.4348C24.5449 10.1602 24.4424 10.0101 24.0196 9.38594C23.6975 8.91004 23.357 8.40669 22.9635 7.82096C22.7384 7.48417 22.4162 7.00644 22.2496 6.75934C22.0831 6.51224 21.9257 6.27795 21.9 6.23768C21.8744 6.19741 21.8415 6.15165 21.8268 6.13518C21.7957 6.09857 21.5797 6.04549 21.2008 5.98143C21.0507 5.9558 20.8695 5.92285 20.7981 5.90821C20.7286 5.89357 20.5309 5.85696 20.3589 5.82767C19.8427 5.73798 19.3174 5.6428 19.2936 5.63365C19.2826 5.62999 19.1746 5.60986 19.0556 5.58789C18.9366 5.56776 18.7115 5.52566 18.5559 5.49637C18.4003 5.46709 18.1075 5.41218 17.9061 5.3774C17.5272 5.30784 16.9653 5.20534 16.4601 5.11199C16.0904 5.04427 15.7152 4.97655 15.3527 4.91065C15.0544 4.85757 14.6956 4.79168 14.3003 4.71846C14.1703 4.69467 13.8775 4.63975 13.6505 4.59949C13.4235 4.55739 13.0666 4.49149 12.8543 4.45306C11.8421 4.26819 10.9342 4.10711 10.7548 4.08332L10.5938 4.06135V3.9918C10.5938 3.9259 10.5974 3.92224 10.7457 3.84171C10.828 3.79595 10.9617 3.73921 11.0422 3.71358C11.2747 3.63853 11.4009 3.64769 12.113 3.78496C12.2887 3.81974 12.5578 3.86916 12.7078 3.89479C12.8598 3.92224 13.0483 3.95519 13.1288 3.96983C13.2094 3.98448 13.3668 4.01193 13.4766 4.03207C13.5883 4.0522 13.8628 4.10162 14.0898 4.14189C14.3168 4.18399 14.6334 4.24073 14.7945 4.27002C14.9556 4.2993 15.2063 4.34323 15.3527 4.37069C15.7188 4.43658 16.2606 4.53176 16.7072 4.60864C16.9141 4.64525 17.1905 4.69467 17.3204 4.71846C17.4522 4.74409 17.703 4.78802 17.8787 4.8173C18.0544 4.84842 18.3674 4.9015 18.5742 4.93811C18.7811 4.97471 19.0849 5.0278 19.2515 5.05708C19.418 5.08637 19.7878 5.15226 20.0751 5.20351C20.3625 5.25476 20.8073 5.33347 21.0635 5.3774C21.8579 5.51651 21.9275 5.53115 22.0007 5.58057C22.0703 5.6245 22.1764 5.77825 22.5919 6.42804C22.6834 6.57081 22.9305 6.95153 23.1447 7.27734C24.2502 8.96129 24.2265 8.92651 24.5175 9.37679C24.7994 9.81059 24.8945 9.97716 24.9751 10.1767C25.0337 10.3194 25.0428 10.3597 25.0501 10.5354L25.0574 10.7313H24.9952C24.933 10.7313 24.9257 10.7221 24.7298 10.4348Z" fill="white"/>
<path d="M22.0977 4.57385C22.0776 4.55921 21.9714 4.53541 21.8598 4.51711C21.7499 4.50064 21.5028 4.46037 21.3106 4.42559C20.9372 4.36153 20.8732 4.35055 20.0751 4.22425C19.7878 4.17849 19.4583 4.12541 19.343 4.10527C19.2277 4.08514 19.0007 4.04853 18.8396 4.02474C17.875 3.87465 16.9269 3.72455 16.7621 3.69344C16.6871 3.67879 16.5297 3.65317 16.4144 3.6367C16.299 3.62022 16.138 3.59643 16.0574 3.58178C15.8415 3.54335 15.2649 3.45183 14.8585 3.39142C14.6627 3.36397 14.3954 3.32187 14.2637 3.2999C14.1337 3.27794 13.8372 3.23035 13.6047 3.19191L13.1837 3.12419L13.1782 3.05646C13.1727 2.99789 13.1801 2.98691 13.2423 2.94664C13.5663 2.7453 14.066 2.75079 15.2978 2.97044C16.105 3.11504 16.936 3.26879 17.7597 3.42986C18.9019 3.65134 20.0001 3.86732 20.3222 3.93139C20.6224 3.98996 20.9226 4.04853 21.6584 4.18764C22.1544 4.28282 22.2698 4.30845 22.2826 4.32675C22.2881 4.3359 22.2862 4.4018 22.2789 4.47135L22.2661 4.59948L22.2002 4.59765C22.1636 4.59765 22.1178 4.58666 22.0977 4.57385Z" fill="white"/>
</g>
<defs>
<clipPath id="clip0_5_72">
<rect width="30" height="30" fill="white"/>
</clipPath>
</defs>
</svg>
