<svg width="447" height="158" viewBox="0 0 447 158" fill="none" xmlns="http://www.w3.org/2000/svg">
<path d="M212.552 110.037C228.713 110.037 242.103 97.2247 242.103 80.7176C242.103 63.8639 228.713 51.2818 212.552 51.2818C196.39 51.2818 183 63.8646 183 80.7176C183 97.2247 196.39 110.037 212.552 110.037ZM212.552 98.2637C202.624 98.2637 195.236 90.0677 195.236 80.8331C195.236 71.2518 202.624 63.0559 212.552 63.0559C222.479 63.0559 229.867 71.2518 229.867 80.8331C229.867 90.0677 222.479 98.2637 212.552 98.2637ZM350.961 106.806C351.308 108.076 350.847 109.231 349.809 109.231H342.306C339.42 109.231 337.804 107.27 337.804 104.615V74.4865C337.804 66.9832 332.494 62.5964 324.875 62.5964C318.295 62.5964 312.754 66.4058 308.021 71.1384C308.136 71.831 308.136 72.5236 308.136 73.3328V98.8429C308.251 102.075 308.482 104.499 308.828 106.808C309.059 108.078 308.713 109.231 307.674 109.231H300.171C297.169 109.231 295.669 107.27 295.669 104.615V74.4862C295.669 66.9829 290.359 62.5962 282.739 62.5962C276.16 62.5962 270.619 66.2901 266.001 71.023V107.385C266.001 108.423 265.193 109.231 264.154 109.231H255.151C254.112 109.231 253.419 108.423 253.419 107.385V53.9377C253.419 52.8999 254.112 52.0907 255.151 52.0907H261.384C264.155 52.0907 265.886 54.9766 266.002 57.0544V58.2088C270.504 54.7446 276.506 51.3981 284.356 51.3981C292.321 51.3981 300.286 54.7446 304.673 61.2089C309.29 56.9378 316.447 51.3967 326.605 51.3967C338.495 51.3967 350.384 58.9001 350.384 73.3305V98.8406C350.384 102.073 350.73 104.497 350.961 106.806ZM419.181 106.806C419.412 108.076 419.066 109.229 418.029 109.229H410.525C407.524 109.229 406.023 107.268 406.023 104.613V74.5993C406.023 66.9809 400.713 62.5941 393.095 62.5941C386.515 62.5941 380.974 65.7109 376.357 70.2125V107.384C376.357 108.422 375.549 109.23 374.51 109.23H365.505C364.467 109.23 363.775 108.422 363.775 107.384V53.9364C363.775 52.8986 364.467 52.0894 365.505 52.0894H371.739C374.509 52.0894 376.241 54.9753 376.356 57.0531V58.2074C380.858 54.7432 386.86 51.2803 394.709 51.2803C406.599 51.2803 418.488 58.785 418.488 73.2141V98.8406C418.603 102.073 418.834 104.497 419.181 106.806ZM440.074 30.8516C436.266 30.8516 433.149 27.8502 433.149 23.9258C433.149 20.1164 436.266 17 440.074 17C443.884 17 447 20.1168 447 23.9258C447 27.8506 443.883 30.8516 440.074 30.8516ZM444.576 52.0886H435.687C434.533 52.0886 433.84 52.8978 433.84 53.9356V104.612C433.84 107.267 435.457 109.228 438.227 109.228H444.691C445.73 109.228 446.423 108.537 446.423 107.267V53.9358C446.423 52.898 445.615 52.0886 444.576 52.0886Z" fill="black"/>
<path d="M93.2768 149.767C92.9723 149.634 91.6937 149.175 90.4151 148.74C85.4103 146.998 75.7173 143.625 71.845 142.27C69.6044 141.484 66.6697 140.456 65.3303 139.997C63.9908 139.525 61.117 138.522 58.9373 137.76C56.7576 136.986 53.9446 136.006 52.6661 135.559C51.3996 135.112 48.4041 134.072 46.0295 133.237C42.2546 131.919 38.017 130.444 33.4262 128.848C32.6956 128.594 30.528 127.832 28.6162 127.155C26.7044 126.478 24.8413 125.825 24.476 125.704C21.9432 124.869 15.2701 122.487 14.6004 122.185C13.6018 121.725 13.1026 121.217 11.8605 119.416C11.3369 118.654 10.2531 117.094 9.43727 115.945C7.93948 113.817 5.83284 110.818 4.61513 109.077C4.23764 108.545 3.04428 106.888 1.96052 105.388L0 102.668V100.334V98L0.572325 98.0363L1.15683 98.0726L2.61808 100.007C3.42177 101.071 4.91956 103.03 5.94244 104.361C6.96531 105.691 9.26679 108.714 11.0568 111.072C12.8469 113.43 14.6125 115.655 14.9779 116.03C15.745 116.779 15.7085 116.767 21.2491 118.69C28.0804 121.072 31.9041 122.415 36.4096 124.011C37.3838 124.349 39.7096 125.172 41.5849 125.825C43.4601 126.478 45.6764 127.251 46.5166 127.554C48.0875 128.122 50.9613 129.138 57.9022 131.568C67.8631 135.075 71.5649 136.369 71.845 136.466C72.0155 136.514 73.6351 137.095 75.4373 137.736C80.1011 139.392 88.759 142.427 90.7804 143.117C91.7181 143.431 93.7151 144.145 95.2251 144.689C96.7351 145.233 98.1963 145.765 98.4886 145.862C98.9756 146.031 99 146.067 99 146.539C99 147.18 98.9513 147.24 98.2085 147.639C97.8797 147.821 96.9421 148.425 96.1384 148.981C94.5188 150.118 94.2875 150.179 93.2768 149.767Z" fill="black"/>
<path d="M108.405 136.838C105.313 135.714 96.4997 132.545 89.1713 129.908C81.2341 127.066 73.9178 124.429 73.163 124.151C72.7248 123.994 70.1805 123.087 67.5023 122.119C64.8242 121.164 59.5165 119.253 55.694 117.874C51.8837 116.495 48.0125 115.105 47.1116 114.79C46.2108 114.464 44.3482 113.798 42.9726 113.303C41.597 112.795 39.1867 111.924 37.6163 111.367C36.0459 110.799 33.4407 109.868 31.8338 109.287C26.7209 107.449 24.3349 106.602 22.3993 105.925C19.1855 104.788 17.8829 104.28 17.0551 103.82C16.4099 103.47 15.4361 102.587 12.1736 99.3818C8.67974 95.947 5.72157 93.0564 0.998231 88.4726L0 87.493L0.0243471 85.2676L0.0608678 83.0422L0.486942 83.0059C0.864322 82.9697 1.04693 83.0785 2.0695 83.9251C2.70253 84.4452 4.27292 85.7998 5.55114 86.9245C17.5664 97.4951 17.2256 97.1927 18.1751 97.8458C18.942 98.3659 19.7942 98.7045 24.1645 100.277C26.1731 100.99 29.2652 102.103 31.0426 102.756C32.8199 103.397 36.6546 104.788 39.564 105.84C42.4735 106.88 46.6734 108.404 48.8768 109.203C51.0924 110.001 54.4036 111.198 56.2418 111.863C58.08 112.528 60.9286 113.569 62.5721 114.161C64.2155 114.766 67.3684 115.915 69.5718 116.713C71.7874 117.511 75.5612 118.878 77.9716 119.749C85.3366 122.422 103.183 128.88 107.371 130.392C109.55 131.178 111.936 132.037 112.666 132.315C113.409 132.593 114.675 133.077 115.503 133.379L117 133.936L116.963 134.492C116.927 135.012 116.89 135.06 116.355 135.351C116.038 135.52 115.649 135.774 115.503 135.919C115.344 136.052 115.004 136.282 114.736 136.415C114.468 136.548 113.823 136.959 113.299 137.334C112.593 137.842 112.252 138.011 111.96 137.999C111.753 137.999 110.146 137.479 108.405 136.838Z" fill="black"/>
<path d="M130.145 124.891C130.109 124.83 129.927 124.745 129.746 124.696C129.552 124.648 126.746 123.615 123.48 122.387C116.234 119.665 109.496 117.137 105.395 115.605C103.702 114.973 99.8306 113.515 96.8064 112.385C85 107.949 82.9677 107.195 79.6895 105.98C77.8266 105.287 74.3185 103.974 71.8871 103.063C69.4556 102.151 65.875 100.802 63.9274 100.073C61.9798 99.3439 57.9032 97.8126 54.8548 96.6701C44.9597 92.9512 39.4556 90.8851 37.1089 90.0222C22.1331 84.4316 21.6492 84.2493 19.9798 83.3864C19.2782 83.0339 15.9274 81.1258 12.5403 79.1569C9.15323 77.1881 5.17339 74.8789 3.69758 74.016L1 72.4725V71.0505C1 70.2727 1.03629 69.2761 1.08468 68.8264L1.15726 68H1.56855C1.79839 68 2.37903 68.2066 2.91129 68.474C4.14516 69.0938 19.0363 76.2279 20.8387 77.0544C21.6129 77.4068 23.0282 78.0267 23.9839 78.4277C25.7016 79.1448 26.8508 79.5823 33.7823 82.1467C35.6815 82.8394 39.9274 84.4437 43.2177 85.6834C46.5081 86.9352 50.1613 88.3085 51.3226 88.7461C54.8548 90.0708 64.1331 93.5832 82.2903 100.45C86.379 101.993 91.4234 103.889 93.4798 104.667C95.5484 105.433 99.2984 106.855 101.827 107.803C104.355 108.763 108.081 110.173 110.113 110.938C112.145 111.704 118.109 113.952 123.359 115.946C128.621 117.939 133.605 119.81 134.464 120.114L136 120.673V121.123C136 121.488 135.927 121.609 135.577 121.852C135.347 122.01 135.153 122.18 135.153 122.229C135.153 122.278 134.923 122.436 134.645 122.581C134.089 122.861 133.218 123.432 132.371 124.052C131.391 124.781 130.98 124.988 130.593 125C130.387 125 130.181 124.951 130.145 124.891Z" fill="black"/>
<path d="M143.476 110.753C143.172 110.596 141.859 109.894 140.559 109.192C132.611 104.897 130.91 104.098 125.769 102.187C122.549 100.989 118.551 99.4766 116.497 98.6781C115.658 98.3635 110.955 96.5608 106.046 94.6854C101.136 92.81 96.8703 91.1767 96.5665 91.0557C96.2627 90.9347 92.7141 89.5675 88.6673 88.0309C84.6204 86.4822 80.8531 85.0424 80.2819 84.8246C79.7108 84.5947 77.0858 83.5905 74.4487 82.5863C71.8115 81.5821 69.3202 80.6262 68.9192 80.469C67.4001 79.8761 55.3204 75.2542 52.6346 74.2379C51.1034 73.6572 45.1972 71.3946 39.5098 69.2168C27.9891 64.7885 26.7617 64.3288 25.1089 63.8206C23.9665 63.4576 21.2687 62.889 15.6906 61.8363C14.0864 61.5339 11.8139 61.0983 10.6472 60.8684C9.48058 60.6385 7.99796 60.3723 7.36602 60.2635C6.73408 60.1546 5.28792 59.8763 4.16987 59.6464C3.03968 59.4286 2.10392 59.235 2.06747 59.235C1.89733 59.235 2.06747 57.9162 2.37128 56.8757C2.9303 54.9278 2.89385 55.0003 3.58655 55.0003C3.91467 55.0003 4.9598 55.085 5.91986 55.1818C8.53268 55.4601 12.0813 55.811 15.083 56.0893C16.5534 56.2224 18.4371 56.4159 19.2756 56.5127C20.1142 56.6095 21.6697 56.7668 22.7391 56.8757C26.2999 57.2145 27.345 57.4565 30.6384 58.7753C31.647 59.1745 32.7408 59.598 33.0689 59.719C33.4092 59.84 35.3779 60.5901 37.4438 61.3887C39.5219 62.1872 43.508 63.7238 46.3153 64.8006C49.1225 65.8774 52.185 67.0632 53.1208 67.4261C54.0565 67.7891 57.2284 69.0232 60.1693 70.1484C63.1102 71.2857 66.2335 72.4835 67.0963 72.8223C68.7126 73.4394 69.0529 73.5725 72.2004 74.7824C73.2091 75.1574 76.3202 76.3674 79.1274 77.4442C81.9347 78.5331 86.2853 80.2149 88.7888 81.1707C91.2922 82.1386 96.0561 83.9777 99.3616 85.2481C102.667 86.5185 107.844 88.5149 110.846 89.6643C113.86 90.8258 117.518 92.2414 118.988 92.81C120.459 93.3787 123.084 94.395 124.821 95.0605C130.472 97.2262 130.144 97.0689 135.941 100.614C136.84 101.171 139.526 102.792 141.896 104.219C144.266 105.647 146.392 106.942 146.611 107.111C146.939 107.365 147 107.474 147 107.934C147 108.369 146.915 108.563 146.453 109.12C146.161 109.483 145.76 110.051 145.566 110.366C145.238 110.934 145.201 110.959 144.618 110.995C144.181 111.019 143.877 110.959 143.476 110.753Z" fill="black"/>
<path d="M146.431 97.5794C146.141 97.358 145.064 96.4602 144.037 95.5993C143.009 94.7261 141.159 93.1888 139.937 92.1557C138.704 91.1349 136.915 89.6344 135.947 88.8227C134.968 88.011 133.505 86.7812 132.67 86.0924C131.836 85.4037 129.829 83.7311 128.196 82.3536C124.545 79.2913 123.698 78.6517 122.61 78.0983C121.8 77.6924 118.825 76.4749 112.054 73.7815C110.53 73.1665 106.443 71.5308 102.985 70.1288C99.5266 68.7267 94.3876 66.6483 91.5581 65.5168C88.7286 64.3853 84.8109 62.7988 82.852 62.0117C80.8931 61.2245 78.2813 60.1669 77.0479 59.6749C75.8145 59.183 71.2197 57.3259 66.8303 55.5549C55.1254 50.8322 54.0372 50.4263 49.2972 49.0858C42.0784 47.0442 39.5149 46.294 34.3033 44.732C28.0881 42.8627 25.8995 42.2231 24.7871 41.9648L23.6142 41.682L22.1269 41.9034C21.3046 42.0263 17.8343 42.6044 14.4002 43.1824C10.9661 43.7605 7.90689 44.2401 7.58041 44.2401H7L7.06046 43.4776C7.13301 42.6167 7.93107 39.7142 8.16081 39.4928C8.24546 39.419 9.74484 38.9763 11.5102 38.5335C13.2757 38.0785 15.3434 37.5373 16.1051 37.3283C19.382 36.4551 21.4739 36 22.2841 36C22.7073 36 26.2623 36.8855 28.9225 37.648C29.4908 37.8079 31.9696 38.4966 34.4242 39.1854C36.891 39.8741 39.3577 40.5751 39.926 40.735C42.5137 41.4729 48.62 43.1947 51.4737 43.9941C53.2028 44.4738 55.1617 45.0272 55.8268 45.224C57.1327 45.6053 61.8727 46.9704 66.0564 48.1634C69.5873 49.1596 71.8001 49.9344 74.8109 51.1888C76.2136 51.7792 79.3091 53.0582 81.7033 54.0421C84.0974 55.0137 87.3864 56.3666 89.0188 57.0307C91.5702 58.0761 103.094 62.7496 111.328 66.0702C121.111 70.0304 121.606 70.2518 123.057 71.4693C124.097 72.3425 127.821 75.6632 136.479 83.4728C138.535 85.3422 141.509 87.9987 143.069 89.3885C146.056 92.045 146.963 92.9182 147.374 93.5085C147.555 93.7791 147.664 94.2956 147.833 95.7346C147.954 96.7554 148.027 97.6901 147.991 97.7885C147.846 98.1451 147.023 98.0344 146.431 97.5794Z" fill="black"/>
<path d="M143.815 81.6604C143.634 81.4784 142.897 80.6657 142.159 79.8773C141.434 79.0768 140.31 77.8759 139.681 77.2088C139.053 76.5417 137.832 75.2317 136.962 74.2977C135.427 72.6359 134.472 71.6049 132.477 69.5065C131.945 68.9364 130.773 67.687 129.878 66.7167C128.996 65.7463 127.908 64.5818 127.461 64.1088C126.421 63.005 123.424 59.7906 119.072 55.1329C114.382 50.1112 114.14 49.8807 112.666 49.1893C110.514 48.1826 107.843 47.4063 99.7923 45.4898C97.9067 45.0289 89.3245 42.9183 81.8422 41.0625C78.7236 40.2862 74.0941 39.146 71.5678 38.5153C69.0414 37.8845 64.8591 36.8535 62.2724 36.2106C57.8121 35.1068 54.488 34.2941 42.5575 31.3466C39.7048 30.6431 35.8368 29.697 33.9753 29.2361C32.1138 28.7752 29.2369 28.0716 27.5688 27.6592C25.9128 27.2468 23.2415 26.5918 21.6459 26.2037C17.4032 25.1484 18.068 25.112 15.2878 26.5554C13.4989 27.4773 12.8099 27.7805 12.4593 27.7805H12L12.0725 27.2104C12.1088 26.8829 12.411 25.7427 12.7373 24.6753C13.4263 22.3707 13.7527 21.8613 14.8164 21.3639C15.3483 21.1214 15.7109 21.0486 16.69 21.0122C18.0801 20.9515 18.9625 21.0971 22.3107 21.9098C23.5437 22.213 25.659 22.7225 27.0249 23.05C29.8897 23.7292 38.2906 25.7427 41.4696 26.5069C45.0475 27.356 55.2374 29.7698 58.4527 30.5218C59.4801 30.7644 61.1966 31.1768 62.2603 31.4315C63.324 31.6863 65.258 32.1472 66.5514 32.4504C67.8448 32.7537 69.6942 33.2025 70.6612 33.4329C71.6282 33.6634 75.327 34.5367 78.8808 35.3737C82.4345 36.2106 86.1092 37.084 87.0399 37.3023C90.1585 38.0543 94.8485 39.1581 100.88 40.5652C104.168 41.3415 107.19 42.0571 107.589 42.1541C107.988 42.2512 109.583 42.6393 111.143 43.0032C112.702 43.3792 114.189 43.7916 114.443 43.9251C115.071 44.2526 115.929 45.1138 118.105 47.6125C119.942 49.7109 121.683 51.688 121.792 51.7972C121.828 51.8336 124.04 54.308 126.687 57.3041C129.347 60.3001 132.332 63.66 133.311 64.7638C134.29 65.8676 136.019 67.8205 137.143 69.0819C138.255 70.3555 140.225 72.5631 141.495 73.9944C144.468 77.318 144.686 77.6455 144.867 79.0646C144.94 79.6469 145 80.5566 145 81.066V82H144.565C144.251 82 144.045 81.903 143.815 81.6604Z" fill="black"/>
<path d="M141.734 66.6731C141.541 66.4794 140.925 65.7046 140.345 64.9419C139.765 64.1792 138.835 62.9685 138.292 62.2542C137.736 61.54 136.71 60.2082 136.009 59.2881C134.826 57.7506 133.365 55.862 129.85 51.322C129.138 50.3898 127.833 48.707 126.964 47.569C126.082 46.4431 125.273 45.3898 125.152 45.2446C124.899 44.954 122.411 41.7216 119.621 38.0775C117.254 35.0024 116.698 34.3971 115.95 34.0218C115.213 33.6707 113.522 33.2591 109.15 32.3753C107.206 31.9758 105.358 31.5884 101.602 30.8015C96.2278 29.6634 95.322 29.4697 94.1143 29.2276C93.4138 29.0823 92.2544 28.8402 91.5177 28.6707C90.7931 28.5133 89.4284 28.2228 88.4985 28.0291C86.0952 27.5327 83.7039 27.0242 80.7088 26.3826C79.2837 26.0799 77.1944 25.632 76.0592 25.4019C72.7138 24.6998 70.2622 24.1913 68.1487 23.7312C65.0208 23.0654 61.1199 22.23 59.2721 21.8426C58.3422 21.6489 56.6877 21.2978 55.5887 21.0678C54.4896 20.8378 52.5332 20.4262 51.2409 20.1477C49.9487 19.8814 48.1251 19.4939 47.1951 19.3002C46.2652 19.1065 44.3329 18.6949 42.9078 18.3923C38.9586 17.5448 35.8428 16.891 34.5747 16.6368C33.9467 16.5036 32.2921 16.1525 30.8912 15.8499C29.5023 15.5472 27.9444 15.2082 27.4492 15.1114C26.0845 14.845 26 14.7845 26 14.2276C26 13.8281 26.0483 13.7433 26.3261 13.6465C26.5193 13.5738 27.2077 13.3196 27.8719 13.0654C28.5362 12.8232 29.4661 12.4722 29.925 12.3027L30.7704 12L35.4201 12.9322C37.9804 13.4528 42.8474 14.4455 46.229 15.1477C56.1563 17.1816 61.6875 18.3196 63.6199 18.6949C64.6223 18.8886 66.2164 19.2155 67.1826 19.4092C71.9892 20.4019 79.2958 21.9031 86.8077 23.4286C91.397 24.3608 97.2664 25.5593 99.8509 26.092C102.447 26.6247 105.491 27.2421 106.614 27.4722C113.087 28.7676 116.553 29.5061 117.121 29.724C118.22 30.1356 117.616 29.4092 124.548 38.7312C127.181 42.2785 133.679 51.0073 134.379 51.9274C134.971 52.7143 136.251 54.4334 139.246 58.4649C140.587 60.2567 141.794 61.8789 141.939 62.0605C142.422 62.6901 143.135 65.7409 142.978 66.5763C142.905 66.9637 142.857 67 142.483 67C142.193 67 141.963 66.9031 141.734 66.6731Z" fill="black"/>
<path d="M138.825 51.0272C137.598 49.2006 136.918 48.2021 134.112 44.0496C131.973 40.8834 129.714 37.5346 127.102 33.6378C125.607 31.3972 123.469 28.2188 122.364 26.5749C121.258 24.9309 120.213 23.3722 120.043 23.1043C119.873 22.8364 119.655 22.532 119.557 22.4224C119.351 22.1788 117.917 21.8257 115.402 21.3995C114.406 21.229 113.203 21.0098 112.73 20.9124C112.268 20.8149 110.956 20.5714 109.814 20.3766C106.388 19.7799 102.901 19.1466 102.743 19.0857C102.67 19.0614 101.954 18.9274 101.164 18.7813C100.374 18.6473 98.88 18.3673 97.8474 18.1724C96.8147 17.9776 94.8709 17.6123 93.5345 17.3809C91.0197 16.9181 87.2901 16.2362 83.937 15.6152C81.4829 15.1646 78.9924 14.714 76.5869 14.2756C74.6067 13.9225 72.2255 13.4841 69.6014 12.997C68.7388 12.8387 66.795 12.4734 65.2885 12.2055C63.7821 11.9254 61.4131 11.487 60.0038 11.2313C53.2855 10.0013 47.2597 8.92973 46.0691 8.77142L45 8.62529V8.16255C45 7.72416 45.0243 7.6998 46.0084 7.16399C46.555 6.85956 47.4419 6.48205 47.9765 6.31157C49.5194 5.81229 50.3576 5.87318 55.0835 6.78649C56.2498 7.01786 58.0357 7.34665 59.0319 7.51714C60.0402 7.6998 61.2916 7.919 61.8261 8.01642C62.3607 8.11384 63.4055 8.2965 64.1344 8.43045C64.8755 8.5644 66.6978 8.89319 68.2043 9.1611C69.7107 9.44118 71.8125 9.81868 72.8815 10.0135C73.9506 10.2084 75.615 10.5006 76.5869 10.6833C79.0167 11.1217 82.6128 11.7549 85.5771 12.2664C86.9499 12.5099 88.7844 12.8387 89.6469 12.997C90.5216 13.1675 92.186 13.4597 93.3523 13.6546C94.5186 13.8616 96.596 14.2147 97.9689 14.4583C99.3417 14.7018 101.358 15.055 102.464 15.2498C103.569 15.4447 106.024 15.8831 107.931 16.224C109.838 16.565 112.79 17.0886 114.491 17.3809C119.764 18.3064 120.226 18.4038 120.711 18.7326C121.173 19.0249 121.878 20.0478 124.636 24.3708C125.243 25.3206 126.883 27.8535 128.304 30.0211C135.642 41.2244 135.484 40.993 137.416 43.9887C139.287 46.8747 139.919 47.9829 140.453 49.3102C140.842 50.2601 140.903 50.528 140.951 51.697L141 53H140.587C140.174 53 140.125 52.9391 138.825 51.0272Z" fill="black"/>
<path d="M121.741 11.8291C121.606 11.7314 120.895 11.5727 120.147 11.4506C119.412 11.3407 117.757 11.0721 116.47 10.8401C113.969 10.4128 113.54 10.3395 108.196 9.49709C106.272 9.19185 104.065 8.83778 103.293 8.70348C102.521 8.56918 101.001 8.32499 99.9223 8.16627C93.4626 7.1651 87.1132 6.16394 86.0101 5.95638C85.5075 5.8587 84.4534 5.68777 83.6811 5.57789C82.9089 5.46801 81.8303 5.30928 81.2909 5.21161C79.8446 4.95521 75.9835 4.34475 73.2623 3.94184C71.9507 3.7587 70.1612 3.47788 69.2786 3.33137C68.4083 3.18486 66.4226 2.86742 64.8659 2.61102L62.0467 2.15927L62.0099 1.70753C61.9732 1.31683 62.0222 1.24357 62.4389 0.974969C64.6085 -0.368058 67.9548 -0.33143 76.2041 1.13369C81.6096 2.09823 87.1745 3.12381 92.6904 4.19823C100.339 5.67556 107.694 7.11627 109.851 7.54359C111.861 7.93429 113.871 8.32499 118.799 9.2529C122.121 9.88779 122.893 10.0587 122.979 10.1808C123.015 10.2419 123.003 10.6814 122.954 11.1453L122.868 12L122.427 11.9878C122.182 11.9878 121.875 11.9145 121.741 11.8291Z" fill="black"/>
<path d="M83.9449 157.881C83.8696 157.805 83.5309 157.652 83.1922 157.529C81.8938 157.071 81.1505 156.681 74.1599 152.764C72.6358 151.907 70.6882 150.84 69.832 150.382C68.9758 149.925 68.0067 149.382 67.668 149.172C67.0941 148.81 67.0565 148.772 67.0282 148.391L67 148H67.6398C68.1855 148 68.5242 148.086 69.7849 148.534C70.6129 148.829 72.5605 149.506 74.1129 150.049C78.582 151.602 86.3629 154.346 87.4731 154.756C87.9247 154.927 87.9435 154.946 87.9718 155.318L88 155.709L86.8804 156.461C86.2688 156.881 85.629 157.309 85.4691 157.424C85.2997 157.529 85.0457 157.71 84.8858 157.814C84.5659 158.034 84.1425 158.062 83.9449 157.881Z" fill="black"/>
</svg>
