<svg width="1232" height="1334" viewBox="0 0 1232 1334" fill="none" xmlns="http://www.w3.org/2000/svg">
<path d="M629.79 1331.99C628.99 1331.19 625.39 1329.59 621.79 1328.29C607.99 1323.49 600.09 1319.39 525.79 1278.29C509.59 1269.29 488.89 1258.09 479.79 1253.29C470.69 1248.49 460.39 1242.79 456.79 1240.59C450.69 1236.79 450.29 1236.39 449.99 1232.39L449.69 1228.29H456.49C462.29 1228.29 465.89 1229.19 479.29 1233.89C488.09 1236.99 508.79 1244.09 525.29 1249.79C572.79 1266.09 655.49 1294.89 667.29 1299.19C672.09 1300.99 672.29 1301.19 672.59 1305.09L672.89 1309.19L660.99 1317.09C654.49 1321.49 647.69 1325.99 645.99 1327.19C644.19 1328.29 641.49 1330.19 639.79 1331.29C636.39 1333.59 631.89 1333.89 629.79 1331.99Z" fill="black"/>
<path d="M685.29 1278.89C674.89 1275.39 656.39 1269.09 644.29 1264.79C632.19 1260.59 617.39 1255.39 611.29 1253.29C605.29 1251.19 589.69 1245.79 576.79 1241.29C563.89 1236.89 549.69 1231.89 545.29 1230.29C530.39 1224.89 479.39 1207.09 459.29 1200.29C425.69 1188.89 316.09 1150.99 287.19 1140.69C257.39 1130.19 249.79 1126.59 201.29 1099.79C187.59 1092.19 162.99 1078.69 146.79 1069.79C104.19 1046.49 107.89 1049.29 86.0902 1023.99C77.9902 1014.59 65.1902 999.885 57.7902 991.385C40.0902 970.985 34.4902 963.985 25.9902 951.285C18.0902 939.485 2.79023 911.885 0.790233 905.885C-0.509767 901.785 -0.109768 875.685 1.29023 872.085C1.79023 870.785 3.09023 870.285 5.79023 870.285H9.49023L27.8902 898.585C53.6902 938.385 56.7902 943.185 72.2902 967.285C90.3902 995.585 104.29 1016.39 109.59 1023.19C118.09 1034.19 121.89 1036.19 158.29 1048.59C177.59 1055.19 260.89 1084.19 324.79 1106.69C374.19 1123.99 445.69 1148.99 465.29 1155.79C495.59 1166.29 589.49 1199.09 660.79 1223.99C694.59 1235.79 727.09 1247.09 733.09 1248.99L743.79 1252.49V1255.69C743.79 1258.19 742.69 1260.09 739.59 1263.59C737.19 1266.09 733.99 1268.79 732.29 1269.59C730.69 1270.39 724.99 1274.29 719.79 1278.19C712.89 1283.39 709.49 1285.29 707.29 1285.29C705.69 1285.19 695.79 1282.39 685.29 1278.89Z" fill="black"/>
<path d="M769.79 1235.29C767.29 1234.19 756.79 1230.39 746.29 1226.79C705.19 1212.39 625.59 1184.49 593.79 1173.29C575.39 1166.79 551.29 1158.29 540.29 1154.49C529.29 1150.59 505.69 1142.29 487.79 1135.99C469.89 1129.59 446.79 1121.49 436.29 1117.79C425.89 1114.09 401.29 1105.49 381.79 1098.59C350.79 1087.69 315.99 1075.49 278.29 1062.29C272.29 1060.19 254.49 1053.89 238.79 1048.29C223.09 1042.69 207.79 1037.29 204.79 1036.29C183.99 1029.39 129.19 1009.69 123.69 1007.19C115.49 1003.39 111.39 999.185 101.19 984.285C96.8903 977.985 87.9903 965.085 81.2903 955.585C68.9903 937.985 51.6903 913.185 41.6903 898.785C38.5903 894.385 28.7903 880.685 19.8903 868.285L3.79028 845.785V826.485V807.185L8.49028 807.485L13.2903 807.785L25.2903 823.785C31.8903 832.585 44.1903 848.785 52.5903 859.785C60.9903 870.785 79.8903 895.785 94.5903 915.285C109.29 934.785 123.79 953.185 126.79 956.285C133.09 962.485 132.79 962.385 178.29 978.285C234.39 997.985 265.79 1009.09 302.79 1022.29C310.79 1025.09 329.89 1031.89 345.29 1037.29C360.69 1042.69 378.89 1049.09 385.79 1051.59C398.69 1056.29 422.29 1064.69 479.29 1084.79C561.09 1113.79 591.49 1124.49 593.79 1125.29C595.19 1125.69 608.49 1130.49 623.29 1135.79C661.59 1149.49 732.69 1174.59 749.29 1180.29C756.99 1182.89 773.39 1188.79 785.79 1193.29C798.19 1197.79 810.19 1202.19 812.59 1202.99C816.59 1204.39 816.79 1204.69 816.79 1208.59C816.79 1213.89 816.39 1214.39 810.29 1217.69C807.59 1219.19 799.89 1224.19 793.29 1228.79C779.99 1238.19 778.09 1238.69 769.79 1235.29Z" fill="black"/>
<path d="M847.59 1187.69C847.29 1187.39 837.89 1183.89 826.69 1179.79C815.49 1175.79 797.99 1169.49 787.79 1165.79C777.59 1162.09 751.09 1152.59 728.79 1144.69C706.49 1136.69 685.39 1129.09 681.79 1127.79C678.19 1126.49 664.99 1121.79 652.29 1117.29C639.69 1112.79 623.69 1107.09 616.79 1104.69C609.89 1102.19 596.69 1097.39 587.29 1094.09C577.99 1090.89 567.79 1087.29 564.79 1086.09C561.79 1084.99 549.19 1080.49 536.79 1076.19C524.39 1071.79 505.09 1064.89 493.79 1060.79C458.09 1047.89 436.59 1040.29 425.29 1036.29C414.09 1032.49 346.99 1008.49 334.29 1003.89C330.49 1002.49 307.69 994.385 283.79 985.885C259.89 977.385 235.09 968.485 228.79 966.285C214.99 961.285 196.89 954.785 171.29 945.885C160.89 942.185 147.59 937.285 141.89 934.985C129.59 930.185 127.29 928.085 110.29 907.185C100.09 894.685 92.8903 885.885 62.2903 849.285C56.0903 841.885 46.3903 830.185 40.6903 823.285C34.9903 816.385 24.7903 804.385 18.0903 796.485L5.79028 782.185L6.19028 762.985C6.39028 752.385 6.59028 743.685 6.69028 743.585C6.69028 743.385 8.39028 743.285 10.3903 743.285C12.9903 743.285 14.6903 744.085 16.5903 746.085C19.9903 749.585 44.2903 776.285 57.2903 790.785C81.6903 817.985 128.89 869.485 135.79 876.385C139.99 880.585 145.19 884.985 147.29 886.085C153.09 888.985 163.09 892.685 231.79 917.085C251.89 924.285 270.09 930.785 272.29 931.685C274.49 932.485 296.59 940.485 321.29 949.285C346.09 958.185 384.99 972.185 407.79 980.385C430.59 988.585 456.69 997.985 465.79 1001.19C474.89 1004.49 495.39 1011.89 511.29 1017.59C527.29 1023.39 556.69 1033.99 576.79 1041.19C596.89 1048.29 619.59 1056.49 627.29 1059.29C634.99 1062.09 657.49 1070.19 677.29 1077.29C697.09 1084.39 728.79 1095.79 747.79 1102.59C766.79 1109.49 791.49 1118.29 802.79 1122.29C819.69 1128.29 849.79 1139.19 886.09 1152.59C891.79 1154.69 891.79 1154.69 891.79 1158.89V1162.99L880.59 1170.39C874.49 1174.49 866.29 1180.19 862.39 1183.09C856.89 1187.09 854.49 1188.29 851.69 1188.29C849.69 1188.29 847.89 1187.99 847.59 1187.69Z" fill="black"/>
<path d="M898.29 1127.59C872.89 1118.29 800.49 1092.09 740.29 1070.29C675.09 1046.79 614.99 1024.99 608.79 1022.69C605.19 1021.39 584.29 1013.89 562.29 1005.89C540.29 997.985 496.69 982.185 465.29 970.785C433.99 959.385 402.19 947.885 394.79 945.285C387.39 942.585 372.09 937.085 360.79 932.985C349.49 928.785 329.69 921.585 316.79 916.985C303.89 912.285 282.49 904.585 269.29 899.785C227.29 884.585 207.69 877.586 191.79 871.986C165.39 862.586 154.69 858.386 147.89 854.586C142.59 851.686 134.59 844.386 107.79 817.886C79.0903 789.485 54.7903 765.585 15.9903 727.685L7.79028 719.585L7.99028 701.185L8.29028 682.785L11.7903 682.485C14.8903 682.185 16.3903 683.085 24.7903 690.085C29.9903 694.385 42.8903 705.585 53.3903 714.885C152.09 802.285 149.29 799.785 157.09 805.185C163.39 809.485 170.39 812.285 206.29 825.286C222.79 831.186 248.19 840.386 262.79 845.786C277.39 851.086 308.89 862.586 332.79 871.286C356.69 879.886 391.19 892.485 409.29 899.085C427.49 905.685 454.69 915.585 469.79 921.085C484.89 926.585 508.29 935.185 521.79 940.085C535.29 945.085 561.19 954.585 579.29 961.185C597.49 967.785 628.49 979.085 648.29 986.285C708.79 1008.39 855.39 1061.79 889.79 1074.29C907.69 1080.79 927.29 1087.89 933.29 1090.19C939.39 1092.49 949.79 1096.49 956.59 1098.99L968.89 1103.59L968.59 1108.19C968.29 1112.49 967.99 1112.89 963.59 1115.29C960.99 1116.69 957.79 1118.79 956.59 1119.99C955.29 1121.09 952.49 1122.99 950.29 1124.09C948.09 1125.19 942.79 1128.59 938.49 1131.69C932.69 1135.89 929.89 1137.29 927.49 1137.19C925.79 1137.19 912.59 1132.89 898.29 1127.59Z" fill="black"/>
<path d="M998.69 1084.29C997.89 1083.79 992.89 1081.79 987.69 1079.99C982.49 1078.09 970.89 1073.69 961.79 1070.39C936.29 1060.89 917.79 1053.99 900.79 1047.79C858.29 1032.29 810.49 1014.79 794.79 1008.99C785.19 1005.39 761.29 996.585 741.79 989.485C711.39 978.285 675.99 965.285 572.79 927.285C562.59 923.585 541.29 915.685 525.29 909.785C509.39 903.885 492.29 897.585 487.29 895.785C482.39 893.985 465.69 887.885 450.29 882.285C434.89 876.685 416.49 869.885 409.29 867.285C392.89 861.285 332.09 838.985 312.29 831.585C286.09 821.885 280.19 819.785 235.29 803.385C173.09 780.585 170.19 779.485 161.79 775.185C154.49 771.385 148.59 767.085 111.29 737.785C101.39 730.085 86.9903 718.785 79.2903 712.785C71.5903 706.785 60.3903 697.985 54.2903 693.285C48.2903 688.585 35.9903 679.085 26.9903 672.385L10.7903 660.085V641.185V622.285H14.8903C18.4903 622.285 20.8903 623.585 33.1903 632.085C40.8903 637.485 55.7903 647.685 66.1903 654.685C95.2903 674.385 117.69 689.585 136.79 702.585C169.99 725.285 177.09 728.985 207.99 740.185C218.59 743.985 246.89 754.385 270.79 763.285C294.69 772.185 325.29 783.485 338.79 788.385C352.29 793.385 370.99 800.285 380.29 803.785C421.79 819.185 433.99 823.685 443.79 827.285C456.39 831.885 472.79 837.885 511.29 852.285C552.59 867.585 567.99 873.385 586.79 880.185C595.89 883.385 614.29 890.285 627.79 895.285C641.29 900.285 665.59 909.285 681.79 915.285C697.99 921.185 720.29 929.485 731.29 933.585C755.59 942.785 775.79 950.185 789.79 955.285C795.59 957.385 813.79 964.085 830.29 970.285C846.79 976.485 873.99 986.585 890.79 992.685C907.59 998.885 932.29 1008.09 945.79 1013.09C959.29 1017.99 975.89 1024.19 982.79 1026.59C999.19 1032.59 1034.89 1045.79 1041.59 1048.49C1046.59 1050.49 1046.79 1050.69 1046.79 1054.39C1046.79 1056.59 1046.39 1058.29 1045.79 1058.29C1045.29 1058.29 1044.79 1058.99 1044.79 1059.79C1044.79 1060.59 1043.59 1061.99 1042.09 1062.89C1040.49 1063.79 1034.79 1067.59 1029.39 1071.19C1023.99 1074.79 1017.59 1079.09 1015.19 1080.59C1012.79 1082.19 1010.79 1083.89 1010.79 1084.39C1010.79 1085.59 1000.79 1085.49 998.69 1084.29Z" fill="black"/>
<path d="M1080.39 1031.39C1080.09 1030.89 1078.59 1030.19 1077.09 1029.79C1075.49 1029.39 1052.29 1020.89 1025.29 1010.79C965.39 988.385 909.69 967.585 875.79 954.985C861.79 949.785 829.79 937.785 804.79 928.485C707.19 891.985 690.39 885.785 663.29 875.785C647.89 870.085 618.89 859.285 598.79 851.785C578.69 844.285 549.09 833.185 532.99 827.185C516.89 821.185 483.19 808.585 457.99 799.185C376.19 768.585 330.69 751.585 311.29 744.485C187.49 698.485 183.49 696.985 169.69 689.885C163.89 686.985 136.19 671.285 108.19 655.085C80.1903 638.885 47.2903 619.885 35.0903 612.785L12.7903 600.085V588.385C12.7903 581.985 13.0903 573.785 13.4903 570.085L14.0903 563.285H17.4903C19.3903 563.285 24.1903 564.985 28.5903 567.185C38.7903 572.285 161.89 630.985 176.79 637.785C183.19 640.685 194.89 645.785 202.79 649.085C216.99 654.985 226.49 658.585 283.79 679.685C299.49 685.385 334.59 698.585 361.79 708.785C388.99 719.085 419.19 730.385 428.79 733.985C457.99 744.885 534.69 773.785 684.79 830.285C718.59 842.985 760.29 858.585 777.29 864.985C794.39 871.285 825.39 882.985 846.29 890.785C867.19 898.685 897.99 910.285 914.79 916.585C931.59 922.885 980.89 941.385 1024.29 957.785C1067.79 974.185 1108.99 989.585 1116.09 992.085L1128.79 996.685V1000.39C1128.79 1003.39 1128.19 1004.39 1125.29 1006.39C1123.39 1007.69 1121.79 1009.09 1121.79 1009.49C1121.79 1009.89 1119.89 1011.19 1117.59 1012.39C1112.99 1014.69 1105.79 1019.39 1098.79 1024.49C1090.69 1030.49 1087.29 1032.19 1084.09 1032.29C1082.39 1032.29 1080.69 1031.89 1080.39 1031.39Z" fill="black"/>
<path d="M1139.29 968.185C1134.89 966.485 1120.99 961.085 1108.29 956.285C1095.69 951.385 1071.59 942.285 1054.79 935.985C1037.99 929.585 1014.59 920.785 1002.79 916.285C959.69 899.885 946.59 894.885 909.79 881.085C889.19 873.385 853.39 859.885 830.29 851.085C807.19 842.285 778.39 831.385 766.29 826.785C754.19 822.185 726.29 811.685 704.29 803.285C682.29 794.885 654.19 784.285 641.79 779.585C629.39 774.885 611.89 768.285 602.79 764.785C593.69 761.385 568.79 751.985 547.29 743.885C525.89 735.785 491.89 722.885 471.79 715.285C451.69 707.685 412.59 692.785 384.79 682.285C356.99 671.785 330.89 661.885 326.79 660.285C322.69 658.685 310.99 654.285 300.79 650.485C275.69 640.985 219.99 619.885 210.79 616.285C206.69 614.685 192.49 609.385 179.29 604.385C166.09 599.485 134.59 587.585 109.29 577.985C83.9903 568.385 54.4903 557.285 43.7903 553.285C33.0903 549.285 22.3903 545.185 20.0903 544.185L15.7903 542.385V523.785V505.285H19.6903C21.7903 505.285 25.3903 505.985 27.6903 506.785C32.7903 508.585 83.4903 522.985 113.29 531.185C134.39 536.885 144.89 539.885 171.29 547.685C197.89 555.485 238.79 569.885 283.29 587.285C300.09 593.785 372.09 621.385 425.79 641.885C527.59 680.685 577.09 699.485 640.29 723.785C662.29 732.185 684.79 740.785 690.29 742.785C695.79 744.785 719.39 753.785 742.79 762.785C784.19 778.685 813.49 789.885 898.79 822.285C921.59 830.985 945.49 840.085 951.79 842.585C962.09 846.585 996.79 859.885 1055.29 881.985C1102.09 899.685 1137.89 914.585 1166.59 928.385C1178.29 933.985 1178.79 934.385 1178.79 937.385C1178.79 939.585 1177.09 942.685 1172.49 948.585C1169.09 953.085 1164.09 960.085 1161.39 964.085L1156.69 971.285H1151.99C1149.29 971.185 1143.99 969.885 1139.29 968.185Z" fill="black"/>
<path d="M1183.79 911.085C1181.29 909.785 1170.49 903.985 1159.79 898.185C1094.39 862.685 1080.39 856.085 1038.09 840.285C1011.59 830.385 978.69 817.885 961.79 811.285C954.89 808.685 916.19 793.785 875.79 778.285C835.39 762.785 800.29 749.285 797.79 748.285C795.29 747.285 766.09 735.985 732.79 723.285C699.49 710.485 668.49 698.585 663.79 696.785C659.09 694.885 637.49 686.585 615.79 678.285C594.09 669.985 573.59 662.085 570.29 660.785C557.79 655.885 458.39 617.685 436.29 609.285C423.69 604.485 375.09 585.785 328.29 567.785C233.49 531.185 223.39 527.385 209.79 523.185C200.39 520.185 178.19 515.485 132.29 506.785C119.09 504.285 100.39 500.685 90.7902 498.785C81.1902 496.885 68.9902 494.685 63.7902 493.785C58.5902 492.885 46.6902 490.585 37.4902 488.685C28.1902 486.885 20.4902 485.285 20.1902 485.285C18.7902 485.285 20.1902 474.385 22.6902 465.785C27.2902 449.685 26.9902 450.285 32.6902 450.285C35.3902 450.285 43.9902 450.985 51.8902 451.785C73.3902 454.085 102.59 456.985 127.29 459.285C139.39 460.385 154.89 461.985 161.79 462.785C168.69 463.585 181.49 464.885 190.29 465.785C219.59 468.585 228.19 470.585 255.29 481.485C263.59 484.785 272.59 488.285 275.29 489.285C278.09 490.285 294.29 496.485 311.29 503.085C328.39 509.685 361.19 522.385 384.29 531.285C407.39 540.185 432.59 549.985 440.29 552.985C447.99 555.985 474.09 566.185 498.29 575.485C522.49 584.885 548.19 594.785 555.29 597.585C568.59 602.685 571.39 603.785 597.29 613.785C605.59 616.885 631.19 626.885 654.29 635.785C677.39 644.785 713.19 658.685 733.79 666.585C754.39 674.585 793.59 689.785 820.79 700.285C847.99 710.785 890.59 727.285 915.29 736.785C940.09 746.385 970.19 758.085 982.29 762.785C994.39 767.485 1015.99 775.885 1030.29 781.385C1076.79 799.285 1074.09 797.985 1121.79 827.285C1129.19 831.885 1151.29 845.285 1170.79 857.085C1190.29 868.885 1207.79 879.585 1209.59 880.985C1212.29 883.085 1212.79 883.985 1212.79 887.785C1212.79 891.385 1212.09 892.985 1208.29 897.585C1205.89 900.585 1202.59 905.285 1200.99 907.885C1198.29 912.585 1197.99 912.785 1193.19 913.085C1189.59 913.285 1187.09 912.785 1183.79 911.085Z" fill="black"/>
<path d="M1199.29 853.385C1187.19 845.285 1164.49 829.785 1148.79 818.985C1055.29 754.685 1052.69 753.185 984.29 726.785C973.29 722.485 955.29 715.485 944.29 711.285C933.29 706.985 919.09 701.485 912.79 698.985C896.29 692.485 834.39 668.385 827.29 665.685C823.99 664.485 811.39 659.585 799.29 654.785C787.19 650.085 764.69 641.285 749.29 635.285C733.89 629.285 708.49 619.385 692.79 613.285C677.09 607.185 657.29 599.485 648.79 596.085C640.29 592.785 622.49 585.885 609.29 580.785C586.29 571.785 573.29 566.685 517.29 544.785C503.59 539.385 485.09 532.185 476.29 528.785C467.49 525.385 442.09 515.485 419.79 506.785C397.49 498.085 374.99 489.285 369.79 487.285C344.59 477.485 319.59 467.685 303.29 461.285C231.39 432.885 230.39 432.585 208.79 431.185C200.29 430.685 158.39 429.885 115.79 429.485L38.2903 428.785V423.285C38.3903 417.085 44.3903 394.385 46.3903 392.685C47.8903 391.485 47.7903 391.485 95.7903 387.785C114.19 386.385 139.89 384.385 152.79 383.285C202.99 379.185 208.19 378.885 214.99 380.185C233.99 383.885 287.79 399.885 333.29 415.285C353.99 422.385 371.09 428.685 429.79 450.785C436.09 453.185 453.49 459.985 468.29 465.785C483.19 471.685 507.89 481.385 523.29 487.485C538.69 493.485 569.29 505.585 591.29 514.285C613.29 522.985 636.09 531.985 641.99 534.185C647.89 536.385 674.19 546.785 700.49 557.185C726.79 567.585 755.49 578.885 764.29 582.285C773.09 585.785 791.99 593.185 806.29 598.785C820.59 604.485 848.99 615.585 869.29 623.585C889.69 631.585 920.49 643.685 937.79 650.585C955.09 657.485 975.39 665.385 982.79 668.285C1012.59 679.785 1031.69 687.685 1039.79 691.885C1049.29 696.785 1218.19 822.785 1225.49 830.385C1229.29 834.385 1229.79 835.585 1230.89 842.285C1231.99 849.585 1231.69 862.985 1230.29 866.585C1229.79 867.785 1228.49 868.285 1225.39 868.285C1221.69 868.285 1218.89 866.685 1199.29 853.385Z" fill="black"/>
<path d="M1210.59 800.985C1208.19 799.185 1199.29 791.885 1190.79 784.885C1182.29 777.785 1166.99 765.285 1156.89 756.885C1146.69 748.585 1131.89 736.385 1123.89 729.785C1115.79 723.185 1103.69 713.185 1096.79 707.585C1089.89 701.985 1073.29 688.385 1059.79 677.185C1029.59 652.285 1022.59 647.085 1013.59 642.585C1006.89 639.285 982.29 629.385 926.29 607.485C913.69 602.485 879.89 589.185 851.29 577.785C822.69 566.385 780.19 549.485 756.79 540.285C733.39 531.085 700.99 518.185 684.79 511.785C668.59 505.385 646.99 496.785 636.79 492.785C626.59 488.785 588.59 473.685 552.29 459.285C455.49 420.885 446.49 417.585 407.29 406.685C347.59 390.085 326.39 383.985 283.29 371.285C231.89 356.085 213.79 350.885 204.59 348.785L194.89 346.485L182.59 348.285C175.79 349.285 147.09 353.985 118.69 358.685C90.2902 363.385 64.9902 367.285 62.2902 367.285H57.4902L57.9902 361.085C58.5902 354.085 65.1902 330.485 67.0902 328.685C67.7902 328.085 80.1902 324.485 94.7902 320.885C109.39 317.185 126.49 312.785 132.79 311.085C159.89 303.985 177.19 300.285 183.89 300.285C187.39 300.285 216.79 307.485 238.79 313.685C243.49 314.985 263.99 320.585 284.29 326.185C304.69 331.785 325.09 337.485 329.79 338.785C351.19 344.785 401.69 358.785 425.29 365.285C439.59 369.185 455.79 373.685 461.29 375.285C472.09 378.385 511.29 389.485 545.89 399.185C575.09 407.285 593.39 413.585 618.29 423.785C629.89 428.585 655.49 438.985 675.29 446.985C695.09 454.885 722.29 465.885 735.79 471.285C756.89 479.785 852.19 517.785 920.29 544.785C1001.19 576.985 1005.29 578.785 1017.29 588.685C1025.89 595.785 1056.69 622.785 1128.29 686.285C1145.29 701.485 1169.89 723.085 1182.79 734.385C1207.49 755.985 1214.99 763.085 1218.39 767.885C1219.89 770.085 1220.79 774.285 1222.19 785.985C1223.19 794.285 1223.79 801.885 1223.49 802.685C1222.29 805.585 1215.49 804.685 1210.59 800.985Z" fill="black"/>
<path d="M1203.29 737.685C1201.69 736.785 1198.09 733.685 1195.29 730.785C1192.59 727.885 1184.89 720.385 1178.29 714.185C1171.69 707.985 1160.89 697.685 1154.29 691.285C1147.69 684.985 1134.69 672.585 1125.29 663.785C1115.99 654.985 1098.49 638.385 1086.29 626.785C1051.39 593.585 996.69 541.985 992.29 538.085C981.29 528.485 979.09 527.485 911.29 500.485C886.59 490.585 832.99 469.185 792.29 452.785C668.79 402.985 676.99 405.885 608.79 388.385C595.89 385.085 579.19 380.785 571.79 378.785C564.39 376.785 553.09 373.785 546.79 372.185C540.49 370.485 532.39 368.285 528.79 367.285C525.19 366.285 515.09 363.585 506.29 361.285C471.09 351.985 459.79 348.985 447.79 345.785C440.89 343.885 424.99 339.585 412.29 336.285C399.69 332.885 382.59 328.285 374.29 326.085C357.59 321.585 349.59 319.485 313.29 309.885C299.59 306.285 280.89 301.285 271.79 298.785C262.69 296.285 249.49 292.785 242.29 290.885C235.19 288.985 222.29 285.485 213.79 283.185C205.29 280.885 191.99 277.485 184.29 275.685L170.29 272.385L152.29 278.485C99.3903 296.385 83.9903 301.285 81.0903 301.285C77.9903 301.285 77.7903 301.085 77.7903 297.785C77.7903 293.885 88.3903 260.385 90.0903 258.685C91.2903 257.585 125.89 242.585 146.49 234.385C151.99 232.085 157.89 230.285 159.49 230.285C163.09 230.285 182.09 235.085 318.79 270.285C350.39 278.385 401.29 291.485 431.79 299.285C462.29 307.085 502.99 317.485 522.19 322.485C541.39 327.385 595.89 341.085 643.19 352.885C690.59 364.785 737.39 376.685 747.29 379.385C781.89 388.985 816.29 401.185 883.79 427.685C899.99 434.085 920.29 442.085 928.79 445.485C956.59 456.385 968.99 463.385 985.69 477.685C990.19 481.485 1007.89 499.085 1024.99 516.685C1042.19 534.385 1088.79 581.385 1128.49 621.285C1168.29 661.185 1202.39 696.085 1204.29 698.985C1208.59 705.385 1213.79 724.085 1213.79 733.185V739.285H1210.09C1207.99 739.185 1204.99 738.485 1203.29 737.685Z" fill="black"/>
<path d="M1191.99 672.485C1190.49 670.985 1184.39 664.285 1178.29 657.785C1172.29 651.185 1162.99 641.285 1157.79 635.785C1152.59 630.285 1142.49 619.485 1135.29 611.785C1122.59 598.085 1114.69 589.585 1098.19 572.285C1093.79 567.585 1084.09 557.285 1076.69 549.285C1069.39 541.285 1060.39 531.685 1056.69 527.785C1048.09 518.685 1023.29 492.185 987.29 453.785C948.49 412.385 946.49 410.485 934.29 404.785C916.49 396.485 894.39 390.085 827.79 374.285C812.19 370.485 741.19 353.085 679.29 337.785C653.49 331.385 615.19 321.985 594.29 316.785C573.39 311.585 538.79 303.085 517.39 297.785C480.49 288.685 452.99 281.985 354.29 257.685C330.69 251.885 298.69 244.085 283.29 240.285C267.89 236.485 244.09 230.685 230.29 227.285C216.59 223.885 194.49 218.485 181.29 215.285C146.19 206.585 151.69 206.285 128.69 218.185C113.89 225.785 108.19 228.285 105.29 228.285H101.49L102.09 223.585C102.39 220.885 104.89 211.485 107.59 202.685C113.29 183.685 115.99 179.485 124.79 175.385C129.19 173.385 132.19 172.785 140.29 172.485C151.79 171.985 159.09 173.185 186.79 179.885C196.99 182.385 214.49 186.585 225.79 189.285C249.49 194.885 318.99 211.485 345.29 217.785C374.89 224.785 459.19 244.685 485.79 250.885C494.29 252.885 508.49 256.285 517.29 258.385C526.09 260.485 542.09 264.285 552.79 266.785C563.49 269.285 578.79 272.985 586.79 274.885C594.79 276.785 625.39 283.985 654.79 290.885C684.19 297.785 714.59 304.985 722.29 306.785C748.09 312.985 786.89 322.085 836.79 333.685C863.99 340.085 888.99 345.985 892.29 346.785C895.59 347.585 908.79 350.785 921.69 353.785C934.59 356.885 946.89 360.285 948.99 361.385C954.19 364.085 961.29 371.185 979.29 391.785C994.49 409.085 1008.89 425.385 1009.79 426.285C1010.09 426.585 1028.39 446.985 1050.29 471.685C1072.29 496.385 1096.99 524.085 1105.09 533.185C1113.19 542.285 1127.49 558.385 1136.79 568.785C1145.99 579.285 1162.29 597.485 1172.79 609.285C1197.39 636.685 1199.19 639.385 1200.69 651.085C1201.29 655.885 1201.79 663.385 1201.79 667.585V675.285H1198.19C1195.59 675.285 1193.89 674.485 1191.99 672.485Z" fill="black"/>
<path d="M1182.09 609.085C1179.89 606.685 1172.09 597.585 1164.79 588.785C1157.39 579.985 1147.79 568.485 1143.29 563.285C1138.89 558.085 1127.79 544.985 1118.79 534.285C1109.69 523.585 1093.09 503.985 1081.79 490.685C1070.49 477.485 1050.69 454.085 1037.79 438.785C1024.89 423.385 1007.49 402.985 999.29 393.385C990.99 383.685 980.39 371.085 975.69 365.285C962.69 349.485 953.99 340.385 949.49 338.185C947.39 337.085 942.39 335.485 938.39 334.685C934.49 333.885 928.69 332.485 925.39 331.685C919.89 330.285 904.59 326.785 875.29 320.285C868.19 318.685 849.49 314.485 833.79 310.785C818.09 307.185 798.29 302.685 789.79 300.685C781.29 298.785 767.59 295.685 759.29 293.785C741.29 289.685 720.19 284.885 697.79 279.785C688.69 277.685 674.99 274.585 667.29 272.785C659.59 270.985 651.69 269.185 649.79 268.785C647.89 268.485 639.79 266.685 631.79 264.785C623.79 262.985 610.29 259.885 601.79 257.885C593.29 255.885 578.19 252.485 568.29 250.285C558.39 248.085 544.69 244.885 537.79 243.285C530.89 241.685 523.69 240.085 521.79 239.785C519.89 239.385 512.89 237.785 506.29 236.185C494.89 233.485 488.19 231.985 458.29 225.285C451.19 223.685 436.29 220.285 425.29 217.785C414.29 215.185 399.49 211.885 392.29 210.285C385.19 208.685 371.19 205.485 361.29 203.285C351.39 200.985 335.69 197.385 326.29 195.285C316.99 193.185 302.29 189.785 293.79 187.785C272.49 182.885 198.39 166.185 166.79 159.185C148.99 155.285 137.79 152.485 134.99 151.285C133.09 150.485 132.69 149.685 132.99 146.585C133.19 144.585 133.99 142.685 134.79 142.285C138.99 140.185 171.79 128.985 174.79 128.585C177.79 128.185 216.59 136.285 276.29 149.785C282.39 151.185 289.79 152.785 292.79 153.385C298.99 154.585 378.89 172.185 428.99 183.385C439.09 185.585 454.29 188.885 462.79 190.785C496.69 198.185 511.39 201.385 535.79 206.785C580.09 216.485 582.89 217.085 603.79 221.685C627.69 226.885 655.79 232.985 678.29 237.885C687.09 239.785 697.19 241.985 700.79 242.785C704.39 243.585 714.69 245.885 723.79 247.785C732.89 249.785 748.39 253.085 758.29 255.285C768.19 257.385 781.69 260.285 788.29 261.685C794.89 263.185 804.09 265.185 808.79 266.285C813.49 267.385 836.99 272.485 860.99 277.685C962.59 299.685 955.59 297.985 963.69 303.385C971.69 308.685 979.69 317.685 1007.39 352.285C1061.99 420.485 1088.99 453.985 1111.79 481.885C1129.59 503.585 1129.79 503.885 1148.99 527.385C1184.29 570.785 1185.59 572.585 1189.99 585.085C1192.29 591.685 1193.19 596.185 1193.59 603.585L1194.09 613.285H1190.09C1186.79 613.285 1185.59 612.585 1182.09 609.085Z" fill="black"/>
<path d="M1175.09 550.585C1173.49 548.985 1168.39 542.585 1163.59 536.285C1158.79 529.985 1151.09 519.985 1146.59 514.085C1141.99 508.185 1133.49 497.185 1127.69 489.585C1117.89 476.885 1105.79 461.285 1076.69 423.785C1070.79 416.085 1059.99 402.185 1052.79 392.785C1045.49 383.485 1038.79 374.785 1037.79 373.585C1035.69 371.185 1015.09 344.485 991.99 314.385C972.39 288.985 967.79 283.985 961.59 280.885C955.49 277.985 941.49 274.585 905.29 267.285C889.19 263.985 873.89 260.785 842.79 254.285C798.29 244.885 790.79 243.285 780.79 241.285C774.99 240.085 765.39 238.085 759.29 236.685C753.29 235.385 741.99 232.985 734.29 231.385C714.39 227.285 694.59 223.085 669.79 217.785C657.99 215.285 640.69 211.585 631.29 209.685C603.59 203.885 583.29 199.685 565.79 195.885C539.89 190.385 507.59 183.485 492.29 180.285C484.59 178.685 470.89 175.785 461.79 173.885C452.69 171.985 436.49 168.585 425.79 166.285C415.09 164.085 399.99 160.885 392.29 159.285C384.59 157.685 368.59 154.285 356.79 151.785C324.09 144.785 298.29 139.385 287.79 137.285C282.59 136.185 268.89 133.285 257.29 130.785C245.79 128.285 232.89 125.485 228.79 124.685C217.49 122.485 216.79 121.985 216.79 117.385C216.79 114.085 217.19 113.385 219.49 112.585C221.09 111.985 226.79 109.885 232.29 107.785C237.79 105.785 245.49 102.885 249.29 101.485L256.29 98.9854L294.79 106.685C315.99 110.985 356.29 119.185 384.29 124.985C466.49 141.785 512.29 151.185 528.29 154.285C536.59 155.885 549.79 158.585 557.79 160.185C597.59 168.385 658.09 180.785 720.29 193.385C758.29 201.085 806.89 210.985 828.29 215.385C849.79 219.785 874.99 224.885 884.29 226.785C937.89 237.485 966.59 243.585 971.29 245.385C980.39 248.785 975.39 242.785 1032.79 319.785C1054.59 349.085 1108.39 421.185 1114.19 428.785C1119.09 435.285 1129.69 449.485 1154.49 482.785C1165.59 497.585 1175.59 510.985 1176.79 512.485C1180.79 517.685 1186.69 542.885 1185.39 549.785C1184.79 552.985 1184.39 553.285 1181.29 553.285C1178.89 553.285 1176.99 552.485 1175.09 550.585Z" fill="black"/>
<path d="M1165.79 489.985C1164.39 488.685 1161.59 485.185 1159.49 482.185C1157.39 479.185 1151.59 471.185 1146.69 464.285C1141.79 457.385 1134.49 447.085 1130.49 441.485C1126.59 435.785 1121.19 428.385 1118.69 424.985C1110.89 414.285 1098.59 397.385 1087.19 381.485C1081.19 373.085 1071.29 359.385 1065.29 350.985C1059.19 342.685 1044.19 321.685 1031.79 304.485C1019.39 287.185 1007.49 270.585 1005.19 267.485C1002.99 264.285 996.39 255.085 990.49 246.985C984.59 238.785 978.99 231.085 977.99 229.785C976.39 227.785 973.39 226.985 956.69 223.785C945.99 221.785 926.29 217.985 912.79 215.285C899.29 212.585 869.59 206.785 846.79 202.285C823.99 197.885 799.89 193.085 793.29 191.685C779.89 188.985 760.69 185.185 699.79 173.285C676.99 168.785 650.19 163.585 640.29 161.685C630.39 159.685 612.19 156.085 599.79 153.685C587.39 151.285 571.89 148.185 565.29 146.785C558.69 145.485 535.79 140.985 514.29 136.785C449.99 124.285 440.09 122.285 422.29 118.785C412.99 116.885 402.39 114.885 398.79 114.285C395.19 113.685 387.39 112.085 381.29 110.785C375.29 109.485 361.09 106.585 349.79 104.485C338.49 102.285 322.59 99.1855 314.49 97.6855L299.69 94.7855L299.99 89.7855C300.29 84.8855 300.39 84.6855 305.29 82.0855C311.69 78.6855 324.99 75.2855 335.29 74.5855C344.49 73.9855 354.29 75.2855 387.79 81.7855C400.19 84.1855 420.19 87.9855 432.29 90.2855C444.39 92.5855 463.79 96.1855 475.29 98.3855C499.59 103.085 529.19 108.685 556.29 113.785C566.79 115.785 582.09 118.685 590.29 120.285C637.29 129.385 716.69 144.385 748.29 150.285C760.39 152.585 777.49 155.685 786.29 157.385C795.09 158.985 819.59 163.685 840.79 167.685C861.99 171.785 889.39 176.985 901.79 179.285C914.19 181.585 931.09 184.685 939.29 186.285C947.59 187.885 959.29 190.185 965.29 191.285C980.49 194.185 986.29 195.985 989.79 198.885C992.49 201.285 998.49 209.585 1023.09 245.285C1028.99 253.785 1036.49 264.585 1039.79 269.285C1043.09 273.985 1051.79 286.385 1058.99 296.785C1066.19 307.285 1076.19 321.685 1081.29 328.785C1086.29 335.985 1093.69 346.485 1097.59 352.285C1101.59 358.085 1107.89 367.085 1111.59 372.385C1115.29 377.585 1123.89 389.985 1130.79 399.885C1137.69 409.685 1145.19 420.485 1147.49 423.785C1149.79 427.085 1156.19 436.285 1161.59 444.285C1170.89 457.985 1171.59 459.185 1172.69 466.285C1173.39 470.385 1174.59 474.785 1175.39 476.085C1176.39 477.685 1176.79 480.385 1176.59 485.085L1176.29 491.785L1172.29 492.085C1169.19 492.285 1167.69 491.785 1165.79 489.985Z" fill="black"/>
<path d="M1147.09 417.085C1136.99 402.085 1131.39 393.885 1108.29 359.785C1090.69 333.785 1072.09 306.285 1050.59 274.285C1038.29 255.885 1020.69 229.785 1011.59 216.285C1002.49 202.785 993.89 189.985 992.49 187.785C991.09 185.585 989.29 183.085 988.49 182.185C986.79 180.185 974.99 177.285 954.29 173.785C946.09 172.385 936.19 170.585 932.29 169.785C928.49 168.985 917.69 166.985 908.29 165.385C880.09 160.485 851.39 155.285 850.09 154.785C849.49 154.585 843.59 153.485 837.09 152.285C830.59 151.185 818.29 148.885 809.79 147.285C801.29 145.685 785.29 142.685 774.29 140.785C753.59 136.985 722.89 131.385 695.29 126.285C675.09 122.585 654.59 118.885 634.79 115.285C618.49 112.385 598.89 108.785 577.29 104.785C570.19 103.485 554.19 100.485 541.79 98.2854C529.39 95.9854 509.89 92.3854 498.29 90.2854C442.99 80.1854 393.39 71.3854 383.59 70.0854L374.79 68.8854V65.0854C374.79 61.4854 374.99 61.2854 383.09 56.8854C387.59 54.3854 394.89 51.2854 399.29 49.8854C411.99 45.7854 418.89 46.2854 457.79 53.7854C467.39 55.6854 482.09 58.3854 490.29 59.7854C498.59 61.2854 508.89 63.0854 513.29 63.8854C517.69 64.6854 526.29 66.1854 532.29 67.2854C538.39 68.3854 553.39 71.0854 565.79 73.2854C578.19 75.5854 595.49 78.6854 604.29 80.2854C613.09 81.8854 626.79 84.2854 634.79 85.7854C654.79 89.3854 684.39 94.5854 708.79 98.7854C720.09 100.785 735.19 103.485 742.29 104.785C749.49 106.185 763.19 108.585 772.79 110.185C782.39 111.885 799.49 114.785 810.79 116.785C822.09 118.785 838.69 121.685 847.79 123.285C856.89 124.885 877.09 128.485 892.79 131.285C908.49 134.085 932.79 138.385 946.79 140.785C990.19 148.385 993.99 149.185 997.99 151.885C1001.79 154.285 1007.59 162.685 1030.29 198.185C1035.29 205.985 1048.79 226.785 1060.49 244.585C1120.89 336.585 1119.59 334.685 1135.49 359.285C1150.89 382.985 1156.09 392.085 1160.49 402.985C1163.69 410.785 1164.19 412.985 1164.59 422.585L1164.99 433.285H1161.59C1158.19 433.285 1157.79 432.785 1147.09 417.085Z" fill="black"/>
<path d="M1092.69 285.885C1090.89 283.985 1081.59 269.785 1071.89 254.385C1062.19 238.885 1046.49 214.285 1037.09 199.585C1014.69 164.785 1012.09 160.785 1004.69 148.485C1001.29 142.885 997.99 137.885 997.39 137.385C995.59 135.985 983.49 133.685 939.29 126.285C897.19 119.185 881.19 116.485 816.29 105.285C797.09 101.985 769.59 97.2854 755.29 94.7854C740.99 92.3854 716.29 88.0854 700.29 85.2854C684.39 82.5854 668.19 79.7854 664.29 79.1854C653.39 77.4854 538.69 57.9854 514.79 53.7854C477.99 47.2854 455.89 43.2854 452.29 42.5854C448.49 41.6854 448.29 41.5854 448.29 37.7854C448.29 33.8854 448.39 33.6854 454.79 30.5854C465.09 25.5854 474.99 23.2854 486.09 23.2854C499.09 23.2854 530.39 27.8854 582.29 37.2854C591.09 38.8854 616.09 43.1854 637.79 46.7854C659.49 50.3854 681.09 53.9854 685.79 54.7854C690.49 55.5854 698.79 56.8854 704.29 57.7854C709.79 58.6854 720.39 60.3854 727.79 61.6854C735.19 62.9854 744.69 64.5854 748.79 65.2854C752.89 65.8854 763.99 67.6854 773.29 69.3854C794.69 73.0854 865.39 84.6854 906.79 91.1854C924.09 93.9854 940.29 96.6854 942.79 97.1854C945.29 97.7854 956.29 99.5854 967.29 101.285C1005.29 107.085 1010.79 108.385 1010.79 111.585C1010.79 112.085 1018.09 124.285 1027.09 138.685C1058.79 189.385 1067.49 203.985 1079.59 227.285C1093.89 254.685 1103.79 278.585 1103.79 285.485C1103.79 289.285 1103.79 289.285 1099.89 289.285C1096.69 289.285 1095.29 288.585 1092.69 285.885Z" fill="black"/>
<path d="M1003.29 96.8854C1002.19 96.0854 996.39 94.7854 990.29 93.7854C984.29 92.8854 970.79 90.6854 960.29 88.7854C939.89 85.2854 936.39 84.6854 892.79 77.7854C877.09 75.2854 859.09 72.3854 852.79 71.2854C846.49 70.1854 834.09 68.1854 825.29 66.8854C772.59 58.6854 720.79 50.4854 711.79 48.7854C707.69 47.9854 699.09 46.5854 692.79 45.6854C686.49 44.7854 677.69 43.4854 673.29 42.6854C661.49 40.5854 629.99 35.5854 607.79 32.2854C597.09 30.7854 582.49 28.4854 575.29 27.2854C568.19 26.0854 551.99 23.4854 539.29 21.3854L516.29 17.6854L515.99 13.9854C515.69 10.7854 516.09 10.1854 519.49 7.98544C537.19 -3.01456 564.49 -2.71456 631.79 9.28544C675.89 17.1854 721.29 25.5854 766.29 34.3854C828.69 46.4854 888.69 58.2854 906.29 61.7854C922.69 64.9854 939.09 68.1854 979.29 75.7854C1006.39 80.9854 1012.69 82.3854 1013.39 83.3854C1013.69 83.8854 1013.59 87.4854 1013.19 91.2854L1012.49 98.2854L1008.89 98.1854C1006.89 98.1854 1004.39 97.5854 1003.29 96.8854Z" fill="black"/>
</svg>
